<svg xmlns="http://www.w3.org/2000/svg" viewBox="0 0 60 60"><defs><style>.cls-1{fill:#ff7006;}.cls-2{fill:#fff;fill-rule:evenodd;}</style></defs><g id="Layer_2" data-name="Layer 2"><g id="svg"><circle class="cls-1" cx="30" cy="30" r="30"/><g id="svgg"><path id="path0" class="cls-2" d="M28.48,10.39a27.09,27.09,0,0,0-5.25.88l-.71.21A25.13,25.13,0,0,0,8.68,22.78l-.39.7.57.4c.6.42.7.48.7.4a7.94,7.94,0,0,1,.46-.74C17.45,12.42,31.44,9.2,42.39,16.09a25.79,25.79,0,0,1,7.77,7.69c.16.25.31.48.33.5a6.49,6.49,0,0,0,1.21-.8,15.4,15.4,0,0,0-1-1.71A24.34,24.34,0,0,0,28.48,10.39M11.29,29.45c-3.76.34-6.28,3.6-5.93,7.67s3.23,6.85,7,6.51c3-.27,4.83-2.24,8.66-9.23.29-.54.57-1,.61-1.08s.1,0,.43.48a32.89,32.89,0,0,0,3.55,4.94l.58.6H20.44L20,40l-.69,1a3.5,3.5,0,0,0-.28.44s1.81,0,4,0c4.91,0,4.66,0,6.81,1a11.18,11.18,0,0,0,2.58,1c4.2.88,7.71-2.07,6.18-5.2-.54-1.1-1.38-1.76-3.8-3-1.91-1-2.41-1.37-2.5-2-.32-2.12,3.23-2.34,6-.36,2.41,1.7,4.67,4.72,7.61,10.17a2.26,2.26,0,0,0,.29.46l.57-.19L48,43a2.48,2.48,0,0,0,.7-.3c.24-.42,2-3.31,2.51-4.14,1.53-2.44,2.21-3.46,2.95-4.45l.48-.65V31.16h-8.2l-.56.73c-.79,1-1,1.39-1,1.42s1.6,0,3.55,0A32.38,32.38,0,0,1,52,33.4s-.29.49-.63,1c-1.21,1.86-2.24,3.52-3,4.86-.56,1-.62,1.06-.65,1.06a10.65,10.65,0,0,1-.56-1c-2.82-5.22-5.63-8.13-9-9.31-4.47-1.58-8.48,0-8.48,3.24,0,1.64.92,2.64,3.81,4.15,2.42,1.26,2.81,1.6,2.81,2.45,0,1.8-2.93,2.18-5.31.69s-4.31-4-7.29-9.54c-.33-.6-.61-1.11-.63-1.12s-.57.16-1.23.39l-1.19.4-.32.53-.56,1c-.14.23-.31.53-.38.66l-1.26,2.23c-.68,1.19-1.44,2.46-1.74,2.89a13,13,0,0,1-1.66,2.1c-1.42,1.43-2.8,1.74-4.31,1-2.92-1.51-3.23-6.85-.5-8.8a3.73,3.73,0,0,1,5.06,1l.17.21L16,32.6c1-1,.92-.85.47-1.29a6.38,6.38,0,0,0-5.13-1.86"/></g></g></g></svg>