<svg xmlns="http://www.w3.org/2000/svg" viewBox="0 0 80 80"><defs><style>.cls-1{fill:#ff7006;}.cls-2{fill:#fff;fill-rule:evenodd;}</style></defs><g id="Layer_2" data-name="Layer 2"><g id="svg"><circle class="cls-1" cx="40" cy="40" r="40"/><g id="svgg"><path id="path0" class="cls-2" d="M38,13.86A35.84,35.84,0,0,0,31,15l-.95.29c-7.19,2.1-14.58,8.14-18.44,15.07l-.52.93.75.53c.8.56.94.64.94.53a8.42,8.42,0,0,1,.61-1c9.9-14.83,28.56-19.13,43.15-9.94A34.4,34.4,0,0,1,66.88,31.71l.43.66a8.26,8.26,0,0,0,1.63-1.06A19.37,19.37,0,0,0,67.64,29,32.41,32.41,0,0,0,38,13.86M15.05,39.26c-5,.46-8.37,4.81-7.91,10.23s4.31,9.13,9.34,8.68c4-.36,6.44-3,11.54-12.31.4-.72.76-1.37.81-1.44s.14-.05.58.64a45.06,45.06,0,0,0,4.73,6.59l.78.8H27.25l-.55.83-.92,1.38c-.2.3-.37.56-.37.58s2.42,0,5.37.06c6.54,0,6.21,0,9.07,1.38A15,15,0,0,0,43.3,58c5.59,1.18,10.27-2.76,8.23-6.93-.72-1.47-1.83-2.35-5.06-4-2.55-1.3-3.22-1.81-3.33-2.58-.43-2.84,4.31-3.13,8-.5,3.21,2.27,6.23,6.3,10.15,13.57a3.36,3.36,0,0,0,.39.62l.75-.25c.39-.14,1.1-.39,1.58-.54A3.69,3.69,0,0,0,65,57c.32-.57,2.65-4.42,3.34-5.52,2.05-3.26,2.94-4.62,3.93-5.94l.65-.87V41.55H62l-.74,1c-1.06,1.38-1.41,1.86-1.41,1.9s2.13,0,4.74,0a45.42,45.42,0,0,1,4.74.08s-.38.65-.84,1.36c-1.61,2.48-3,4.69-4,6.49-.75,1.3-.82,1.41-.87,1.41s-.36-.59-.75-1.31c-3.76-7-7.5-10.84-12-12.42-6-2.09-11.3-.05-11.31,4.32,0,2.19,1.23,3.53,5.09,5.54,3.22,1.68,3.75,2.14,3.75,3.27,0,2.39-3.91,2.9-7.09.92s-5.75-5.4-9.72-12.72c-.43-.81-.81-1.48-.84-1.5s-.76.22-1.64.52L27.5,41l-.41.71-.75,1.27c-.19.31-.42.71-.52.88-.21.39-.88,1.58-1.68,3-.9,1.59-1.92,3.28-2.32,3.85a16.51,16.51,0,0,1-2.21,2.8c-1.89,1.91-3.73,2.33-5.74,1.29C10,52.72,9.56,45.6,13.2,43A5,5,0,0,1,20,44.27l.22.29,1.1-1.1c1.28-1.28,1.23-1.12.62-1.71a8.55,8.55,0,0,0-6.84-2.49"/></g></g></g></svg>