<svg id="Layer_1" data-name="Layer 1" xmlns="http://www.w3.org/2000/svg" viewBox="0 0 252 170.96"><defs><style>.cls-1{fill:#f26522;stroke:#fff;stroke-miterlimit:10;stroke-width:2px;}</style></defs><path class="cls-1" d="M22.05-54.14a144.12,144.12,0,0,0-23,3.52A123,123,0,0,0-55.06-20.48,127.33,127.33,0,0,0-76.8,6.62c-2.51,4.17-3.19,5.5-2.88,5.72.12.12.88.65,1.64,1.19l2.85,2,1.43,1,2-3A137.42,137.42,0,0,1-56.47-5.76c1.63-1.75,8.34-7.92,11-10.09A121.36,121.36,0,0,1,7.79-41.37c29.74-6,60.62.23,86.73,17.34a132.62,132.62,0,0,1,37.36,37.5l2,3.13.9-.65c.48-.36,1.78-1.27,2.85-2s2.09-1.46,2.2-1.58-.17-1-2.43-4.9A130.74,130.74,0,0,0,97.2-34.77C75.12-49.12,49.35-55.75,22.05-54.14Z" transform="translate(96 55.38)"/><path class="cls-1" d="M-67.61,42.8a32.33,32.33,0,0,0-16.63,8.26C-92,58.33-95.83,69.13-94.85,81.14c.82,9.84,4.09,17.63,10,23.77a30.29,30.29,0,0,0,17.76,9.14,37.1,37.1,0,0,0,11.36-.28c10.94-2,19.57-10.66,33.05-33.44,1.89-3.19,8.29-14.58,9.44-16.84a8.83,8.83,0,0,1,1.1-1.77,8.58,8.58,0,0,1,1.41,1.89c9.93,15.53,15.31,23,19.69,27.06l1.86,1.75-14.67,0-14.66,0-3.38,5.13c-1.86,2.82-3.41,5.22-3.47,5.33s8.26.22,18.47.22c10.63,0,19.62.12,21.09.29,5.05.56,8,1.58,15.37,5.18,7.64,3.78,11.42,5,17.31,5.56a30.49,30.49,0,0,0,16.95-2.82c8.28-4,12.71-10.94,11.78-18.36a18.72,18.72,0,0,0-5.75-11.27c-3-3-6.63-5.33-15.06-9.65-4-2.08-7.92-4.17-8.6-4.65-2.82-2-4.23-4.06-4.23-6.32,0-3.49,2.32-6.11,6.26-7.19a31.71,31.71,0,0,1,9.87,0c14,2.91,26.82,14.69,41.53,38.21,2.29,3.66,5.5,9,5.5,9.16s.62,1.16,1.36,2.45c1.21,2.09,2.08,3.67,5.07,9.25l.71,1.33,6.09-2.09c3.35-1.15,6.17-2.17,6.28-2.28s2.18-3.44,4.54-7.39c10.83-18,19-30.79,23.75-37L155,62.87V51H113.41l-.73.93c-2.31,2.93-7.59,10-7.59,10.15s8.12.2,18.08.2c14.66,0,18,.06,17.93.37s-2.26,3.66-4.85,7.67-5.13,8-5.64,8.74c-1.24,1.91-8.2,13.59-9.73,16.27a12.67,12.67,0,0,1-1.38,2.2,36.84,36.84,0,0,1-2.4-4.18C108.9,78.13,102.41,68.88,94,60.45c-9.59-9.59-19.26-15-31.13-17.37a63,63,0,0,0-14.89-.57c-8.71,1.39-15.2,5.64-18.16,12-3.64,7.78-1.1,16,6.74,21.82A80.45,80.45,0,0,0,48,83.15c8.54,4.39,11.47,6.37,13,8.76a6.88,6.88,0,0,1-2.36,9.28c-2.26,1.5-4.8,2.12-8.52,2.09C38.18,103.16,27,95.33,15,78.52c-5-6.94-9.81-15.06-19.2-32.23l-.93-1.75-6.12,2.12c-3.36,1.16-6.15,2.14-6.15,2.17-.59.82-2.76,4.48-5.64,9.5C-34.65,78.72-36.73,82.21-40.74,88c-9,13-16.69,17.2-25.85,14.13-6.69-2.26-11.54-8-13.76-16.33-.68-2.56-.74-3.3-.74-7.89s.06-5.33.74-7.9c2.2-8.2,7.38-14.12,14.07-16a22.75,22.75,0,0,1,8.82,0A21.54,21.54,0,0,1-45.9,61.8l.57.76L-41,58.19l4.34-4.34-2.14-2.09a35.7,35.7,0,0,0-14.75-8.51C-56.92,42.2-63.66,42-67.61,42.8Z" transform="translate(96 55.38)"/></svg>